<mxfile host="app.diagrams.net" agent="Mozilla/5.0 (Windows NT 10.0; Win64; x64) AppleWebKit/537.36 (KHTML, like Gecko) Chrome/133.0.0.0 Safari/537.36" version="26.0.11">
  <diagram name="Page-1" id="Usqne9iZbDRm94zUr1NF">
    <mxGraphModel dx="1461" dy="641" grid="1" gridSize="10" guides="1" tooltips="1" connect="1" arrows="1" fold="1" page="1" pageScale="1" pageWidth="827" pageHeight="1169" math="0" shadow="0">
      <root>
        <mxCell id="0" />
        <mxCell id="1" parent="0" />
        <mxCell id="wZTDAbi01DV3whJdUChY-1" value="&lt;b&gt;&lt;font style=&quot;font-size: 14px;&quot;&gt;ECS Deployment&lt;/font&gt;&lt;/b&gt;" style="rounded=1;whiteSpace=wrap;html=1;fillColor=light-dark(#D4E1F5,var(--ge-dark-color, #121212));" vertex="1" parent="1">
          <mxGeometry x="320" y="40" width="120" height="60" as="geometry" />
        </mxCell>
        <mxCell id="wZTDAbi01DV3whJdUChY-2" value="&lt;b&gt;&lt;font style=&quot;font-size: 14px;&quot;&gt;App&lt;/font&gt;&lt;/b&gt;" style="rounded=1;whiteSpace=wrap;html=1;fillColor=light-dark(#99FFFF,var(--ge-dark-color, #121212));" vertex="1" parent="1">
          <mxGeometry x="40" y="160" width="120" height="60" as="geometry" />
        </mxCell>
        <mxCell id="wZTDAbi01DV3whJdUChY-3" value="&lt;b&gt;&lt;font style=&quot;font-size: 14px;&quot;&gt;Infra&lt;/font&gt;&lt;/b&gt;" style="rounded=1;whiteSpace=wrap;html=1;fillColor=light-dark(#FFFFCC,var(--ge-dark-color, #121212));" vertex="1" parent="1">
          <mxGeometry x="530" y="160" width="120" height="60" as="geometry" />
        </mxCell>
        <mxCell id="wZTDAbi01DV3whJdUChY-4" value="&lt;b&gt;&lt;font style=&quot;font-size: 14px;&quot;&gt;Patient Service&lt;/font&gt;&lt;/b&gt;" style="rounded=1;whiteSpace=wrap;html=1;fillColor=light-dark(#FFE6CC,var(--ge-dark-color, #121212));" vertex="1" parent="1">
          <mxGeometry x="10" y="320" width="120" height="60" as="geometry" />
        </mxCell>
        <mxCell id="wZTDAbi01DV3whJdUChY-5" value="&lt;b&gt;&lt;font style=&quot;font-size: 14px;&quot;&gt;Appointment Service&lt;/font&gt;&lt;/b&gt;" style="rounded=1;whiteSpace=wrap;html=1;fillColor=light-dark(#D5E8D4,var(--ge-dark-color, #121212));" vertex="1" parent="1">
          <mxGeometry x="160" y="320" width="120" height="60" as="geometry" />
        </mxCell>
        <mxCell id="wZTDAbi01DV3whJdUChY-6" value="&lt;b&gt;&lt;font style=&quot;font-size: 14px;&quot;&gt;VPC&lt;/font&gt;&lt;/b&gt;" style="rounded=1;whiteSpace=wrap;html=1;fillColor=light-dark(#D4E1F5,var(--ge-dark-color, #121212));" vertex="1" parent="1">
          <mxGeometry x="350" y="320" width="80" height="60" as="geometry" />
        </mxCell>
        <mxCell id="wZTDAbi01DV3whJdUChY-7" value="&lt;b&gt;&lt;font style=&quot;font-size: 14px;&quot;&gt;ECS&lt;/font&gt;&lt;/b&gt;" style="rounded=1;whiteSpace=wrap;html=1;fillColor=light-dark(#D5E8D4,var(--ge-dark-color, #121212));" vertex="1" parent="1">
          <mxGeometry x="450" y="320" width="70" height="60" as="geometry" />
        </mxCell>
        <mxCell id="wZTDAbi01DV3whJdUChY-8" value="&lt;b&gt;&lt;font style=&quot;font-size: 14px;&quot;&gt;Logs&lt;/font&gt;&lt;/b&gt;" style="rounded=1;whiteSpace=wrap;html=1;fillColor=light-dark(#FF9999,var(--ge-dark-color, #121212));" vertex="1" parent="1">
          <mxGeometry x="540" y="320" width="80" height="60" as="geometry" />
        </mxCell>
        <mxCell id="wZTDAbi01DV3whJdUChY-9" value="&lt;b&gt;&lt;font style=&quot;font-size: 14px;&quot;&gt;ECR&lt;/font&gt;&lt;/b&gt;" style="rounded=1;whiteSpace=wrap;html=1;fillColor=light-dark(#FFCCE6,var(--ge-dark-color, #121212));" vertex="1" parent="1">
          <mxGeometry x="640" y="320" width="70" height="60" as="geometry" />
        </mxCell>
        <mxCell id="wZTDAbi01DV3whJdUChY-10" value="&lt;b&gt;&lt;font style=&quot;font-size: 14px;&quot;&gt;IAM&lt;/font&gt;&lt;/b&gt;" style="rounded=1;whiteSpace=wrap;html=1;fillColor=light-dark(#FFE4D8,var(--ge-dark-color, #121212));" vertex="1" parent="1">
          <mxGeometry x="730" y="320" width="80" height="60" as="geometry" />
        </mxCell>
        <mxCell id="wZTDAbi01DV3whJdUChY-11" value="&lt;b&gt;&lt;font style=&quot;font-size: 14px;&quot;&gt;Prometheus&lt;/font&gt;&lt;/b&gt;" style="rounded=1;whiteSpace=wrap;html=1;fillColor=light-dark(#D5E8D4,var(--ge-dark-color, #121212));" vertex="1" parent="1">
          <mxGeometry x="420" y="460" width="120" height="60" as="geometry" />
        </mxCell>
        <mxCell id="wZTDAbi01DV3whJdUChY-12" value="&lt;b&gt;&lt;font style=&quot;font-size: 14px;&quot;&gt;Grafana&lt;/font&gt;&lt;/b&gt;" style="rounded=1;whiteSpace=wrap;html=1;fillColor=light-dark(#FFCCFF,var(--ge-dark-color, #121212));" vertex="1" parent="1">
          <mxGeometry x="580" y="460" width="120" height="60" as="geometry" />
        </mxCell>
        <mxCell id="wZTDAbi01DV3whJdUChY-13" value="" style="endArrow=none;html=1;rounded=0;entryX=0;entryY=0.75;entryDx=0;entryDy=0;" edge="1" parent="1" target="wZTDAbi01DV3whJdUChY-1">
          <mxGeometry width="50" height="50" relative="1" as="geometry">
            <mxPoint x="150" y="160" as="sourcePoint" />
            <mxPoint x="200" y="110" as="targetPoint" />
          </mxGeometry>
        </mxCell>
        <mxCell id="wZTDAbi01DV3whJdUChY-14" value="" style="endArrow=none;html=1;rounded=0;entryX=0.434;entryY=-0.033;entryDx=0;entryDy=0;entryPerimeter=0;" edge="1" parent="1" target="wZTDAbi01DV3whJdUChY-3">
          <mxGeometry width="50" height="50" relative="1" as="geometry">
            <mxPoint x="440" y="80" as="sourcePoint" />
            <mxPoint x="490" y="30" as="targetPoint" />
          </mxGeometry>
        </mxCell>
        <mxCell id="wZTDAbi01DV3whJdUChY-15" value="" style="endArrow=none;html=1;rounded=0;entryX=0.34;entryY=1.063;entryDx=0;entryDy=0;entryPerimeter=0;" edge="1" parent="1" target="wZTDAbi01DV3whJdUChY-2">
          <mxGeometry width="50" height="50" relative="1" as="geometry">
            <mxPoint x="30" y="320" as="sourcePoint" />
            <mxPoint x="80" y="270" as="targetPoint" />
          </mxGeometry>
        </mxCell>
        <mxCell id="wZTDAbi01DV3whJdUChY-16" value="" style="endArrow=none;html=1;rounded=0;entryX=0.695;entryY=1.093;entryDx=0;entryDy=0;entryPerimeter=0;exitX=0.369;exitY=-0.033;exitDx=0;exitDy=0;exitPerimeter=0;" edge="1" parent="1" source="wZTDAbi01DV3whJdUChY-5" target="wZTDAbi01DV3whJdUChY-2">
          <mxGeometry width="50" height="50" relative="1" as="geometry">
            <mxPoint x="190" y="310" as="sourcePoint" />
            <mxPoint x="240" y="260" as="targetPoint" />
          </mxGeometry>
        </mxCell>
        <mxCell id="wZTDAbi01DV3whJdUChY-18" value="" style="endArrow=none;html=1;rounded=0;" edge="1" parent="1">
          <mxGeometry width="50" height="50" relative="1" as="geometry">
            <mxPoint x="390" y="320" as="sourcePoint" />
            <mxPoint x="520" y="200" as="targetPoint" />
          </mxGeometry>
        </mxCell>
        <mxCell id="wZTDAbi01DV3whJdUChY-19" value="" style="endArrow=none;html=1;rounded=0;entryX=0.25;entryY=1;entryDx=0;entryDy=0;" edge="1" parent="1" target="wZTDAbi01DV3whJdUChY-3">
          <mxGeometry width="50" height="50" relative="1" as="geometry">
            <mxPoint x="490" y="320" as="sourcePoint" />
            <mxPoint x="540" y="270" as="targetPoint" />
          </mxGeometry>
        </mxCell>
        <mxCell id="wZTDAbi01DV3whJdUChY-20" value="" style="endArrow=none;html=1;rounded=0;entryX=0.605;entryY=1.122;entryDx=0;entryDy=0;entryPerimeter=0;" edge="1" parent="1" target="wZTDAbi01DV3whJdUChY-3">
          <mxGeometry width="50" height="50" relative="1" as="geometry">
            <mxPoint x="560" y="320" as="sourcePoint" />
            <mxPoint x="600" y="230" as="targetPoint" />
          </mxGeometry>
        </mxCell>
        <mxCell id="wZTDAbi01DV3whJdUChY-21" value="" style="endArrow=none;html=1;rounded=0;entryX=0.812;entryY=1.048;entryDx=0;entryDy=0;entryPerimeter=0;" edge="1" parent="1" target="wZTDAbi01DV3whJdUChY-3">
          <mxGeometry width="50" height="50" relative="1" as="geometry">
            <mxPoint x="680" y="320" as="sourcePoint" />
            <mxPoint x="730" y="270" as="targetPoint" />
          </mxGeometry>
        </mxCell>
        <mxCell id="wZTDAbi01DV3whJdUChY-22" value="" style="endArrow=none;html=1;rounded=0;entryX=1;entryY=1;entryDx=0;entryDy=0;" edge="1" parent="1" target="wZTDAbi01DV3whJdUChY-3">
          <mxGeometry width="50" height="50" relative="1" as="geometry">
            <mxPoint x="760" y="320" as="sourcePoint" />
            <mxPoint x="810" y="270" as="targetPoint" />
          </mxGeometry>
        </mxCell>
        <mxCell id="wZTDAbi01DV3whJdUChY-23" value="" style="endArrow=none;html=1;rounded=0;entryX=0.25;entryY=1;entryDx=0;entryDy=0;" edge="1" parent="1" target="wZTDAbi01DV3whJdUChY-8">
          <mxGeometry width="50" height="50" relative="1" as="geometry">
            <mxPoint x="480" y="460" as="sourcePoint" />
            <mxPoint x="530" y="410" as="targetPoint" />
          </mxGeometry>
        </mxCell>
        <mxCell id="wZTDAbi01DV3whJdUChY-24" value="" style="endArrow=none;html=1;rounded=0;entryX=0.5;entryY=1;entryDx=0;entryDy=0;" edge="1" parent="1" target="wZTDAbi01DV3whJdUChY-8">
          <mxGeometry width="50" height="50" relative="1" as="geometry">
            <mxPoint x="620" y="460" as="sourcePoint" />
            <mxPoint x="670" y="410" as="targetPoint" />
          </mxGeometry>
        </mxCell>
      </root>
    </mxGraphModel>
  </diagram>
</mxfile>
